<?xml version="1.0" encoding="UTF-8"?>
<svg width="111.61mm" height="87.298mm" version="1.1" viewBox="0 0 111.61 87.298" xmlns="http://www.w3.org/2000/svg">
 <g transform="translate(18.765 -22.119)">
  <g stroke="#231f20" stroke-miterlimit="10">
   <g stroke-width=".13229px">
    <path class="cls-1" d="m17.206 48.814a9.525 9.525 0 0 0 1.1721-0.32015 8.5143 8.5143 0 0 0 2.8072-1.4896 7.6729 7.6729 0 0 0 2.4474-4.0243 8.0989 8.0989 0 0 0 0.23019-2.4871 8.3741 8.3741 0 0 0-2.0981 0.86783 8.7312 8.7312 0 0 0-2.4024 2.0981 9.4245 9.4245 0 0 0-1.3758 2.4156 11.112 11.112 0 0 0-0.69321 2.4765z" fill="#b4c3b5"/>
    <path class="cls-1" d="m16.563 48.764a7.3898 7.3898 0 0 1-3.7042-3.3629 7.9216 7.9216 0 0 1-0.81227-2.5479 9.5726 9.5726 0 0 1-0.12965-1.5478 8.2206 8.2206 0 0 1 1.4711 0.75935 7.0353 7.0353 0 0 1 1.7542 1.5399 6.7072 6.7072 0 0 1 1.442 4.5879z" fill="#b4c3b5"/>
    <path class="cls-2" d="m16.611 48.962a0.26458 0.26458 0 0 1 0.0979-0.08731 0.24871 0.24871 0 0 1 0.08202-0.02381 0.28575 0.28575 0 0 1 0.14023 0 0.26458 0.26458 0 0 1 0.12965 0.08731 0.29104 0.29104 0 0 1 0.0635 0.15081 0.381 0.381 0 0 1-0.01588 0.15346 1.3547 1.3547 0 0 1-0.06879 0.17727s-0.01588 0.03704-0.07673 0.20373a2.3521 2.3521 0 0 0-0.11642 0.508 3.9529 3.9529 0 0 0-0.05292 0.52917 5.6832 5.6832 0 0 0 0.06615 1.3229 6.2442 6.2442 0 0 0 0.48683 1.4526c0.06879 0.16404 0.13229 0.29898 0.17992 0.39158a0.19579 0.19579 0 0 1 0.02646 0.07937 0.19844 0.19844 0 0 1-0.0344 0.11377 0.24077 0.24077 0 0 1-0.0979 0.07938 0.3519 0.3519 0 0 1-0.13758 0.03969 0.23283 0.23283 0 0 1-0.11112 0 0.20638 0.20638 0 0 1-0.07408-0.05821 2.0717 2.0717 0 0 1-0.26458-0.381 4.3445 4.3445 0 0 1-0.17992-0.43656c-0.16933-0.50271-0.26458-0.75406-0.26458-0.84402a5.8208 5.8208 0 0 1-0.1561-0.99483 5.5086 5.5086 0 0 1 0.02117-1.0213 5.416 5.416 0 0 1 0.20373-1.016c0.02646-0.08731 0.05292-0.1614 0.07144-0.21431a0.4736 0.4736 0 0 1 0.08202-0.21167z" fill="#231f20"/>
    <path class="cls-3" d="m16.511 48.695a10.131 10.131 0 0 0-3.2914-5.6277" fill="none"/>
    <path class="cls-3" d="m17.259 48.742c0.24871-0.50271 0.52917-1.0239 0.85196-1.5531a19.939 19.939 0 0 1 3.556-4.3286" fill="none"/>
   </g>
   <path class="cls-4" d="m92.168 80.061c-0.71967-1.2965-1.5399-2.9819-2.5691-5.2467l-16.788-33.462-0.34396-0.52917a2.2093 2.2093 0 0 0-0.22754-0.16933 3.0533 3.0533 0 0 0-1.651-0.49477l-6.1595-0.10848a1.8971 1.8971 0 0 1-0.26458 0.11906l-0.04762 0.04498a0.60854 0.60854 0 0 0-0.03969 0.27781v2.7596l0.01323 0.08202a0.36777 0.36777 0 0 0 0 0.08467 0.46567 0.46567 0 0 0 0.24871 0.26458 0.52917 0.52917 0 0 0 0.26458 0.05292h5.4187l18.047 36.139h-102.11l18.068-36.089 1.6933-0.02381c0.10319 0.01588 2.9475 0.01852 3.13 0.01588 0.77258 0 0.81492 0.0291 0.83344-0.13758 0.03439-0.33073 0.13494-0.77258 0.1905-1.6378 0.05821-0.9181 0.03969-0.77788 0.05556-1.2091 0-0.26458 0.20902-0.59267-0.9869-0.61383 0 0-0.52917-0.04498-3.0533-0.08467l-2.6009-0.04233a3.175 3.175 0 0 0-0.45244 0 2.3812 2.3812 0 0 0-0.70644 0.13229 1.569 1.569 0 0 0-0.76465 0.77788l-19.727 39.383-0.17992 0.48154a1.8521 1.8521 0 0 0-0.08202 0.35719 1.7806 1.7806 0 0 0 0.55827 1.4817 1.6219 1.6219 0 0 0 0.89958 0.36777h108.83a0.91281 0.91281 0 0 0 0.32809-0.06085 1.1774 1.1774 0 0 0 0.62441-0.67204c0.35984-0.78581-0.381-2.1299-0.44714-2.241z" fill="#231f20" stroke-width=".26458"/>
  </g>
  <g fill="none" stroke="#231f20" stroke-miterlimit="10" stroke-width=".19844px">
   <line class="cls-5" x1="1.6727" x2="12.788" y1="78.476" y2="46.755" opacity=".75"/>
   <line class="cls-5" x1="15.91" x2="22.842" y1="78.476" y2="46.755" opacity=".75"/>
   <line class="cls-5" x1="29.552" x2="32.724" y1="78.651" y2="46.755" opacity=".75"/>
   <line class="cls-5" x1="73.38" x2="62.265" y1="78.476" y2="46.755" opacity=".75"/>
   <line class="cls-5" x1="58.198" x2="51.613" y1="78.476" y2="46.755" opacity=".75"/>
   <line class="cls-5" x1="44.101" x2="40.929" y1="78.651" y2="46.755" opacity=".75"/>
   <line class="cls-6" x1="-5.4076" x2="80.225" y1="69.623" y2="70.486"/>
   <line class="cls-6" x1="-2.4151" x2="76.338" y1="62.739" y2="63.53"/>
   <line class="cls-6" x1=".6752" x2="73.901" y1="56.193" y2="56.931"/>
   <line class="cls-6" x1="3.4851" x2="71.121" y1="50.64" y2="51.32"/>
  </g>
  <g fill="#006838" stroke="#231f20" stroke-miterlimit="10" stroke-width=".26458">
   <path class="cls-7" d="m36.534 26.655a8.9482 8.9482 0 0 0-0.5715 0.75936 9.8081 9.8081 0 0 0-1.0054 1.9473 8.1756 8.1756 0 0 0-0.46302 1.3758 6.6701 6.6701 0 0 0-0.12435 2.2543c0.10583 0.83079 0.3519 1.3758 0.74348 2.241a12.827 12.827 0 0 0 1.6378 2.4421 0.7329 0.7329 0 0 0 0.23019 0.20108 0.84667 0.84667 0 0 0 0.7276 0.0635 0.79375 0.79375 0 0 0 0.35454-0.35719c0.49742-0.89429 0.82815-0.87577 1.4526-2.1775a7.5036 7.5036 0 0 0 0.8599-2.7305 7.0644 7.0644 0 0 0-0.21696-2.413 7.7126 7.7126 0 0 0-0.52917-1.3732 9.3689 9.3689 0 0 0-0.97367-1.6245 2.0929 2.0929 0 0 1-0.37042-0.6641 3.0295 3.0295 0 0 1-0.0926-0.37042 5.2044 5.2044 0 0 1-0.0926-0.6641c-0.0344-0.42333-0.08202-0.77788-0.12436-1.098-0.13229-1.0081-0.23548-1.0583-0.21696-1.4076a2.6458 2.6458 0 0 0-0.06085-0.52917 0.32808 0.32808 0 0 0-0.0926-0.21696 0.26458 0.26458 0 0 0-0.34131 0 0.28046 0.28046 0 0 0-0.04498 0.20108 4.5746 4.5746 0 0 1-0.0926 0.52917s-0.07937 0.4445-0.23283 1.3229c-0.11112 0.635-0.16404 0.94192-0.21696 1.2356-0.03704 0.22225-0.08467 0.50006-0.12171 0.71173z"/>
   <path class="cls-7" d="m29.237 36.008a9.2313 9.2313 0 0 0-0.06085 0.94721 9.9325 9.9325 0 0 0 0.23283 2.1802 8.1677 8.1677 0 0 0 0.37042 1.4023 6.694 6.694 0 0 0 1.1377 1.9526c0.54504 0.635 1.0583 0.95515 1.8521 1.4631a12.793 12.793 0 0 0 2.712 1.1377 0.81227 0.81227 0 0 0 0.30427 0.04233 0.83608 0.83608 0 0 0 0.64029-0.34925 0.79375 0.79375 0 0 0 0.10054-0.49212c-0.07673-1.0213 0.20902-1.188 0.01588-2.6194a7.493 7.493 0 0 0-0.79376-2.7596 6.9744 6.9744 0 0 0-1.5081-1.8944 7.5221 7.5221 0 0 0-1.1933-0.8599 9.5462 9.5462 0 0 0-1.7066-0.82021 2.0849 2.0849 0 0 1-0.67469-0.3519 3.3814 3.3814 0 0 1-0.2831-0.26458 5.3155 5.3155 0 0 1-0.44185-0.50536c-0.26458-0.33338-0.49477-0.60325-0.70644-0.84931-0.6641-0.76729-0.79375-0.762-0.95515-1.0583a2.6167 2.6167 0 0 0-0.33867-0.40481 0.32279 0.32279 0 0 0-0.19579-0.12965 0.26458 0.26458 0 0 0-0.28575 0.18521c-0.01323 0.07144 0.03175 0.127 0.07408 0.19315a4.1857 4.1857 0 0 1 0.20902 0.48948s0.18256 0.4154 0.52917 1.2382c0.26458 0.59002 0.381 0.87842 0.49742 1.1509 0.08996 0.20902 0.20373 0.46567 0.2884 0.6641z"/>
   <path class="cls-7" d="m29.237 45.247a9.1784 9.1784 0 0 0-0.06085 0.94721 9.8848 9.8848 0 0 0 0.23283 2.1775 8.2021 8.2021 0 0 0 0.37042 1.4049 6.694 6.694 0 0 0 1.1377 1.9526c0.54504 0.635 1.0583 0.95515 1.8521 1.4631a12.965 12.965 0 0 0 2.712 1.1377 0.77258 0.77258 0 0 0 0.30427 0.03969 0.84138 0.84138 0 0 0 0.64029-0.3466 0.79375 0.79375 0 0 0 0.10054-0.49212c-0.07673-1.0213 0.20902-1.1906 0.01588-2.6194a7.5062 7.5062 0 0 0-0.79375-2.7622 7.0168 7.0168 0 0 0-1.5081-1.8944 7.8819 7.8819 0 0 0-1.1933-0.8599 9.7314 9.7314 0 0 0-1.7066-0.82021 2.1167 2.1167 0 0 1-0.67469-0.34925 3.3972 3.3972 0 0 1-0.2831-0.26458 5.4028 5.4028 0 0 1-0.44185-0.50271c-0.26458-0.33338-0.49477-0.60325-0.70644-0.84931-0.6641-0.76729-0.79375-0.762-0.95515-1.0583a2.7252 2.7252 0 0 0-0.33867-0.4101 0.33602 0.33602 0 0 0-0.19579-0.12965 0.26458 0.26458 0 0 0-0.28575 0.18786c-0.01323 0.06879 0.03175 0.127 0.07408 0.19314a3.8338 3.8338 0 0 1 0.20902 0.48948s0.18256 0.4154 0.52917 1.2382c0.26458 0.59002 0.381 0.87842 0.49742 1.1509 0.08996 0.20638 0.20373 0.46302 0.2884 0.66146z"/>
   <path class="cls-7" d="m29.237 54.651a9.1705 9.1705 0 0 0-0.06085 0.94456 9.8928 9.8928 0 0 0 0.23283 2.1802 8.2021 8.2021 0 0 0 0.37042 1.4049 6.7363 6.7363 0 0 0 1.1377 1.9526c0.54504 0.63236 1.0583 0.95515 1.8521 1.4631a12.965 12.965 0 0 0 2.712 1.1377 0.77258 0.77258 0 0 0 0.30427 0.03969 0.84138 0.84138 0 0 0 0.64029-0.3466 0.79375 0.79375 0 0 0 0.10054-0.49477c-0.07673-1.0213 0.20902-1.188 0.01588-2.6167a7.5062 7.5062 0 0 0-0.79375-2.7622 7.0168 7.0168 0 0 0-1.5081-1.8944 7.6994 7.6994 0 0 0-1.1933-0.8599 9.7314 9.7314 0 0 0-1.7066-0.82021 2.1167 2.1167 0 0 1-0.67469-0.34925 3.3972 3.3972 0 0 1-0.2831-0.26458 4.9953 4.9953 0 0 1-0.44185-0.50535c-0.26458-0.33338-0.49477-0.60325-0.70644-0.84667-0.6641-0.76729-0.79375-0.762-0.95515-1.0583a2.7252 2.7252 0 0 0-0.34925-0.41804 0.32279 0.32279 0 0 0-0.19579-0.12965 0.26458 0.26458 0 0 0-0.28575 0.18785c-0.01323 0.06879 0.03175 0.127 0.07408 0.19315a3.8338 3.8338 0 0 1 0.20902 0.48948s0.18256 0.4154 0.52917 1.2382c0.26458 0.59002 0.381 0.87577 0.49742 1.1509 0.08996 0.20638 0.20373 0.46302 0.2884 0.66146z"/>
   <path class="cls-7" d="m43.94 35.029a9.189 9.189 0 0 0-0.889 0.32544 9.9192 9.9192 0 0 0-1.9024 1.0927 8.0619 8.0619 0 0 0-1.1351 0.90223 6.6463 6.6463 0 0 0-1.3229 1.8283c-0.36248 0.75406-0.45244 1.3467-0.59531 2.286a12.922 12.922 0 0 0 0.05292 2.9395 0.79375 0.79375 0 0 0 0.08467 0.29369 0.83873 0.83873 0 0 0 0.57679 0.44715 0.79375 0.79375 0 0 0 0.49212-0.10583c0.90223-0.48419 1.1721-0.2884 2.4024-1.0425a7.4824 7.4824 0 0 0 2.2119-1.8283 6.9427 6.9427 0 0 0 1.1271-2.1405 7.9058 7.9058 0 0 0 0.30427-1.442 9.4562 9.4562 0 0 0 0.0635-1.8918 2.1431 2.1431 0 0 1 0.04763-0.75935 3.2306 3.2306 0 0 1 0.12435-0.36248 5.4954 5.4954 0 0 1 0.2831-0.60854c0.20108-0.37306 0.3519-0.69585 0.49212-0.9869 0.43392-0.9181 0.381-1.0266 0.58208-1.2991a2.6591 2.6591 0 0 0 0.24077-0.48948 0.3175 0.3175 0 0 0 0.03969-0.23019 0.26458 0.26458 0 0 0-0.28575-0.18521c-0.06879 0.01588-0.10319 0.07938-0.14817 0.14288a4.2069 4.2069 0 0 1-0.36248 0.39158l-0.91546 0.98954-0.8546 0.92075-0.48948 0.52917z"/>
   <path class="cls-7" d="m44.009 44.26a9.3371 9.3371 0 0 0-0.89164 0.32808 9.7578 9.7578 0 0 0-1.8997 1.0901 8.2868 8.2868 0 0 0-1.1377 0.90223 6.6463 6.6463 0 0 0-1.3229 1.8283c-0.36248 0.75406-0.44979 1.3467-0.59267 2.286a12.991 12.991 0 0 0 0.05027 2.9395 0.79375 0.79375 0 0 0 0.08467 0.29369 0.84931 0.84931 0 0 0 0.57679 0.44715 0.79375 0.79375 0 0 0 0.49212-0.10583c0.90223-0.48154 1.1721-0.2884 2.4024-1.0425a7.4507 7.4507 0 0 0 2.2119-1.8283 6.9427 6.9427 0 0 0 1.1271-2.1405 7.6412 7.6412 0 0 0 0.30427-1.442 9.4562 9.4562 0 0 0 0.0635-1.8918 2.1643 2.1643 0 0 1 0.05027-0.75935 2.9104 2.9104 0 0 1 0.12435-0.36248 5.5271 5.5271 0 0 1 0.28046-0.6059c0.20108-0.37306 0.35454-0.69585 0.49212-0.98954 0.43656-0.9181 0.381-1.0266 0.58208-1.2991a2.6114 2.6114 0 0 0 0.24077-0.48683 0.31485 0.31485 0 0 0 0.03969-0.23283 0.26458 0.26458 0 0 0-0.28575-0.18521c-0.06879 0.01588-0.10319 0.07937-0.14552 0.14288a4.6355 4.6355 0 0 1-0.36512 0.39158l-0.91546 0.99219-0.85196 0.92075-0.48948 0.52917z"/>
   <path class="cls-7" d="m44.009 53.664a9.1916 9.1916 0 0 0-0.89164 0.32544 9.8795 9.8795 0 0 0-1.8997 1.0927 8.091 8.091 0 0 0-1.1377 0.90223 6.6463 6.6463 0 0 0-1.3229 1.8283c-0.36248 0.75406-0.44979 1.3467-0.59267 2.286a12.991 12.991 0 0 0 0.05027 2.9395 0.79375 0.79375 0 0 0 0.08467 0.29369 0.84931 0.84931 0 0 0 0.57679 0.44715 0.79375 0.79375 0 0 0 0.49212-0.10583c0.90223-0.48419 1.1721-0.2884 2.4024-1.0425a7.4507 7.4507 0 0 0 2.2119-1.8283 6.9427 6.9427 0 0 0 1.1271-2.1405 7.6729 7.6729 0 0 0 0.30427-1.442 9.4562 9.4562 0 0 0 0.0635-1.8918 2.1643 2.1643 0 0 1 0.05027-0.75935 2.7728 2.7728 0 0 1 0.12435-0.36248 5.6541 5.6541 0 0 1 0.28046-0.60854c0.20108-0.37306 0.35454-0.69321 0.49212-0.9869 0.43656-0.9181 0.381-1.0266 0.58208-1.2991a2.5718 2.5718 0 0 0 0.24077-0.48948 0.30692 0.30692 0 0 0 0.03969-0.23019 0.26458 0.26458 0 0 0-0.29633-0.1905c-0.06879 0.01588-0.10319 0.07937-0.14552 0.14288a4.6355 4.6355 0 0 1-0.36512 0.39158l-0.91546 0.98954-0.85196 0.9234-0.48948 0.52917z"/>
   <path class="cls-7" d="m35.447 72.64a1.524 1.524 0 0 0 0.03969 0.29633 1.6669 1.6669 0 0 0 0.52917 0.85196 1.7833 1.7833 0 0 0 0.44715 0.2831 2.1749 2.1749 0 0 0 1.6484 0.08202 1.942 1.942 0 0 0 0.50006-0.2831 1.7595 1.7595 0 0 0 0.67469-1.1615 1.3229 1.3229 0 0 0 0-0.23019v-6.5379a1.2965 1.2965 0 0 0-0.01323-0.20373c-0.08202-0.51064-0.49742-0.84402-0.74348-1.0398a1.7859 1.7859 0 0 0-0.4736-0.30956 1.8521 1.8521 0 0 0-1.3494 0 1.9923 1.9923 0 0 0-1.2568 1.3785v6.8606z"/>
  </g>
  <g fill="#231f20" stroke-width=".26458">
   <path class="cls-8" d="m-13.951 85.654h8.0433l5.3261 7.5327h0.26458l5.3261-7.5327h8.0433v23.749h-7.9375v-12.417h-0.19315l-5.2255 6.8792h-0.26458l-5.2255-6.8792h-0.20373v12.417h-7.9375z"/>
   <path class="cls-8" d="m32.028 107h-8.5513l-0.64558 2.4077h-8.2444l6.9215-23.752h12.488l6.9215 23.749h-8.2444zm-1.696-6.35-2.3072-8.7312h-0.54504l-2.3072 8.7312z"/>
   <path class="cls-8" d="m66.977 93.187c0 4.1725-3.8338 7.4639-8.0751 7.4639h-8.1783v8.7524h-7.9375v-23.749h16.457c4.8154 0 7.7338 2.7808 7.7338 7.5327zm-7.9375-0.06879c0-0.81492-0.52917-1.188-1.2885-1.188h-7.0273v2.4448h7.0247a1.2224 1.2224 0 0 0 1.2885-1.2568z"/>
   <path class="cls-8" d="m68.607 103.13h12.385c1.0583 0 1.561-0.47625 1.561-1.2568s-0.508-1.2224-1.5875-1.2224h-5.6409c-3.9688 0-7.194-2.7146-7.194-7.4983 0-5.498 3.7677-7.4983 7.5671-7.4983h14.049v6.2865h-12.115c-0.91546 0-1.561 0.34131-1.561 1.188s0.64558 1.2568 1.561 1.2568h5.2917c4.5482 0 7.5671 2.6802 7.5671 7.4639 0 4.5138-3.392 7.5671-7.8052 7.5671h-14.182z"/>
   <path class="cls-4" d="m12.669 40.083" stroke="#231f20" stroke-miterlimit="10"/>
  </g>
  <g stroke="#231f20" stroke-miterlimit="10" stroke-width=".13229px">
   <path class="cls-1" d="m56.251 41.49c-0.17992 0.08731 0.15875 0.889 0.45508 2.5241 0.19844 1.0874 0.16404 1.3705 0.4154 2.2357 0.34131 1.18 0.65617 1.5134 0.94986 1.696a1.9024 1.9024 0 0 0 1.0769 0.24871 2.1431 2.1431 0 0 0 1.3361-0.45773c0.26458-0.23019 0.45244-0.52917 0.71173-1.5875 0.24077-0.9869 0.27781-1.5081 0.42069-2.3812 0.28046-1.6828 0.56885-2.2781 0.43392-2.3469-0.13494-0.06879-0.77258 0.57944-2.8654 4.0217-0.31221-0.4789-0.56092-0.86519-0.72231-1.1192a21.058 21.058 0 0 0-1.3864-2.0294c-0.42333-0.52123-0.69585-0.86254-0.8255-0.80433z" fill="#b4c3b5"/>
   <path class="cls-10" d="m56.251 41.424" fill="#ffd57f"/>
   <path class="cls-1" d="m57.362 42.67 1.8256 2.7808 1.7674-2.7808a5.6859 5.6859 0 0 0 0-0.82285c-0.04233-0.6059-0.127-1.8521-0.93927-2.8099-0.23283-0.26458-0.49212-0.57679-0.8546-0.57679-0.08996 0-0.43921 0-0.889 0.61383a5.0271 5.0271 0 0 0-0.91017 2.7093z" fill="#b4c3b5"/>
   <path class="cls-1" d="m58.82 48.197h0.70644v3.1168a3.4793 3.4793 0 0 1 0.30162-0.86519c0.61912-0.82285 1.4023-1.1642 2.1458-1.4975s1.651-0.74877 2.9395-1.3626a0.30692 0.30692 0 0 1 0.1905 0 0.40481 0.40481 0 0 1 0.24606 0.34396 0.49742 0.49742 0 0 1-0.02646 0.22754 1.688 1.688 0 0 1-0.35454 0.59267c-0.68792 1.0901-1.1853 1.8891-1.4579 2.3548a5.6515 5.6515 0 0 1-0.44979 0.65881 4.9715 4.9715 0 0 1-0.50535 0.55298 4.572 4.572 0 0 1-1.1536 0.762 5.043 5.043 0 0 1-1.9659 0.45773 4.9371 4.9371 0 0 1-1.9659-0.22754 4.7228 4.7228 0 0 1-1.7648-1.0874 7.9375 7.9375 0 0 1-0.59002-0.73554c-0.20902-0.29369-0.23812-0.37835-0.5715-0.9234-0.44715-0.7276-0.45244-0.66675-0.74612-1.1748-0.14288-0.26458-0.25135-0.45244-0.49477-0.85725-0.10583-0.17727-0.19579-0.32279-0.26458-0.42069a0.39688 0.39688 0 0 1 0.32544-0.54504 0.45773 0.45773 0 0 1 0.31485 0.07673l1.3441 0.65088c0.98954 0.4736 1.4817 0.70908 1.614 0.762a4.8366 4.8366 0 0 1 0.45773 0.20902 4.2095 4.2095 0 0 1 0.42862 0.26458c0.10583 0.07144 0.17727 0.127 0.29633 0.2196a4.3339 4.3339 0 0 1 0.39158 0.32279 3.4555 3.4555 0 0 1 0.35983 0.49212c0.07937 0.13494 0.20902 0.63765 0.28575 0.82021z" fill="#b4c3b5"/>
  </g>
 </g>
</svg>
